<svg width="200" height="200" viewBox="0 0 200 200" xmlns="http://www.w3.org/2000/svg">
  <!-- Background circle -->
  <circle cx="100" cy="100" r="95" fill="#667eea" stroke="#764ba2" stroke-width="3"/>
  
  <!-- Network nodes -->
  <circle cx="60" cy="60" r="8" fill="#ffffff" opacity="0.9"/>
  <circle cx="140" cy="60" r="8" fill="#ffffff" opacity="0.9"/>
  <circle cx="100" cy="100" r="12" fill="#ffffff"/>
  <circle cx="60" cy="140" r="8" fill="#ffffff" opacity="0.9"/>
  <circle cx="140" cy="140" r="8" fill="#ffffff" opacity="0.9"/>
  <circle cx="30" cy="100" r="6" fill="#ffffff" opacity="0.7"/>
  <circle cx="170" cy="100" r="6" fill="#ffffff" opacity="0.7"/>
  <circle cx="100" cy="30" r="6" fill="#ffffff" opacity="0.7"/>
  <circle cx="100" cy="170" r="6" fill="#ffffff" opacity="0.7"/>
  
  <!-- Network connections -->
  <line x1="60" y1="60" x2="100" y2="100" stroke="#ffffff" stroke-width="2" opacity="0.8"/>
  <line x1="140" y1="60" x2="100" y2="100" stroke="#ffffff" stroke-width="2" opacity="0.8"/>
  <line x1="60" y1="140" x2="100" y2="100" stroke="#ffffff" stroke-width="2" opacity="0.8"/>
  <line x1="140" y1="140" x2="100" y2="100" stroke="#ffffff" stroke-width="2" opacity="0.8"/>
  <line x1="30" y1="100" x2="60" y2="60" stroke="#ffffff" stroke-width="1.5" opacity="0.6"/>
  <line x1="30" y1="100" x2="60" y2="140" stroke="#ffffff" stroke-width="1.5" opacity="0.6"/>
  <line x1="170" y1="100" x2="140" y2="60" stroke="#ffffff" stroke-width="1.5" opacity="0.6"/>
  <line x1="170" y1="100" x2="140" y2="140" stroke="#ffffff" stroke-width="1.5" opacity="0.6"/>
  <line x1="100" y1="30" x2="60" y2="60" stroke="#ffffff" stroke-width="1.5" opacity="0.6"/>
  <line x1="100" y1="30" x2="140" y2="60" stroke="#ffffff" stroke-width="1.5" opacity="0.6"/>
  <line x1="100" y1="170" x2="60" y2="140" stroke="#ffffff" stroke-width="1.5" opacity="0.6"/>
  <line x1="100" y1="170" x2="140" y2="140" stroke="#ffffff" stroke-width="1.5" opacity="0.6"/>
  
  <!-- Central text -->
  <text x="100" y="105" text-anchor="middle" font-family="Arial, sans-serif" font-size="24" font-weight="bold" fill="#ffffff">
    COMTIP
  </text>
  
  <!-- Subtitle -->
  <text x="100" y="125" text-anchor="middle" font-family="Arial, sans-serif" font-size="8" fill="#ffffff" opacity="0.9">
    Computational Modeling for Social Tipping Points
  </text>
  
  <!-- Decorative elements -->
  <circle cx="100" cy="100" r="85" fill="none" stroke="#ffffff" stroke-width="1" opacity="0.3" stroke-dasharray="5,5"/>
</svg>